Coordinates
version=1
nRows=36
nColumns=30
inDegrees=yes

Units are S.I. units (second, meters, Newtons, ...)
Angles are in degrees.

endheader
time	floatyaw	floatroll	floatpitch	floatx	floaty	floatz	pro_sup_l	deviation_l	flexion_l	cmc_flexion_l	cmc_abduction_l	mp_flexion_l	ip_flexion_l	2mcp_flexion_l	2mcp_abduction_l	2pm_flexion_l	2md_flexion_l	3mcp_flexion_l	3mcp_abduction_l	3pm_flexion_l	3md_flexion_l	4mcp_flexion_l	4mcp_abduction_l	4pm_flexion_l	4md_flexion_l	5mcp_flexion_l	5mcp_abduction_l	5pm_flexion_l	5md_flexion_l
-1.495000	-3.835761	-5.011433	94.526577	-0.007170	-0.269008	-0.005621	93.141530	-0.052467	-2.148112	28.372089	1.310135	-18.940037	-35.124666	18.441441	6.629742	34.101470	20.322066	8.614450	4.625583	36.264006	21.313184	-1.966671	-3.673580	52.920380	32.571046	-22.303236	-10.234130	64.561988	49.829568
-1.485000	-3.835761	-5.011433	94.526577	-0.007183	-0.269023	-0.005627	93.143905	-0.055677	-2.163054	28.358843	1.309482	-18.938448	-35.103132	18.482910	6.628853	34.061201	20.311957	8.641115	4.642097	36.218625	21.312389	-1.918987	-3.681485	52.870409	32.568976	-22.261911	-10.229718	64.485285	49.868795
-1.475000	-3.835761	-5.011433	94.526577	-0.007195	-0.269030	-0.005628	93.158570	-0.054598	-2.171852	28.351059	1.281856	-18.929827	-35.086654	18.507852	6.628811	34.044371	20.282837	8.650708	4.655506	36.199220	21.295664	-1.893735	-3.691357	52.848925	32.547353	-22.219751	-10.233367	64.405979	49.896333
-1.465000	-3.835761	-5.011433	94.526577	-0.007200	-0.269027	-0.005632	93.178891	-0.048941	-2.171834	28.339286	1.236053	-18.909476	-35.060863	18.513801	6.629121	34.051651	20.239027	8.640385	4.663750	36.209676	21.266475	-1.903018	-3.704149	52.865444	32.513654	-22.189576	-10.243514	64.336968	49.913408
-1.455000	-3.835761	-5.011433	94.526577	-0.007196	-0.269018	-0.005645	93.192927	-0.040915	-2.163849	28.315887	1.195207	-18.879353	-35.017022	18.508485	6.630400	34.073007	20.192208	8.617179	4.665646	36.241374	21.234871	-1.945119	-3.719592	52.916195	32.481498	-22.177457	-10.253209	64.289051	49.923269
-1.445000	-3.835761	-5.011433	94.526577	-0.007182	-0.269005	-0.005668	93.191254	-0.033828	-2.151547	28.281270	1.182399	-18.848217	-34.958127	18.503523	6.634271	34.093465	20.157574	8.593515	4.661447	36.277534	21.213739	-2.004555	-3.735579	52.984141	32.464013	-22.180899	-10.254221	64.269117	49.927588
-1.435000	-3.835761	-5.011433	94.526577	-0.007161	-0.268993	-0.005698	93.173437	-0.029943	-2.139305	28.245660	1.205745	-18.827101	-34.899133	18.506235	6.642481	34.101631	20.147518	8.579855	4.652936	36.302168	21.212975	-2.059795	-3.748655	53.046786	32.467355	-22.191994	-10.241947	64.280158	49.925098
-1.425000	-3.835761	-5.011433	94.526577	-0.007137	-0.268980	-0.005728	93.148936	-0.029101	-2.129972	28.224492	1.252432	-18.822433	-34.860941	18.514691	6.655679	34.095875	20.165958	8.578776	4.642982	36.308541	21.234650	-2.094375	-3.755566	53.087479	32.488010	-22.202897	-10.217976	64.321759	49.912743
-1.415000	-3.835761	-5.011433	94.526577	-0.007117	-0.268965	-0.005752	93.132101	-0.028901	-2.123810	28.229973	1.295611	-18.831341	-34.860970	18.519133	6.672647	34.084789	20.206195	8.584108	4.634733	36.302377	21.271686	-2.104409	-3.755102	53.103278	32.515058	-22.209416	-10.188928	64.390124	49.888566
-1.405000	-3.835761	-5.011433	94.526577	-0.007102	-0.268946	-0.005768	93.134161	-0.026274	-2.119157	28.263604	1.310307	-18.842720	-34.904289	18.508898	6.690402	34.081866	20.253464	8.585565	4.630675	36.297997	21.310884	-2.098122	-3.749176	53.104539	32.535953	-22.210933	-10.162663	64.477630	49.854999
-1.395000	-3.835761	-5.011433	94.526577	-0.007093	-0.268922	-0.005777	93.156355	-0.019588	-2.114057	28.313716	1.288821	-18.843822	-34.979110	18.480281	6.704995	34.097314	20.291134	8.575632	4.631861	36.309452	21.338951	-2.088801	-3.742268	53.106704	32.542741	-22.208606	-10.144403	64.572457	49.820703
-1.385000	-3.835761	-5.011433	94.526577	-0.007086	-0.268896	-0.005783	93.187912	-0.010115	-2.107505	28.359653	1.245831	-18.828430	-35.059389	18.440122	6.712595	34.131336	20.307717	8.554273	4.637620	36.341415	21.348542	-2.086562	-3.739201	53.119506	32.535621	-22.204668	-10.134974	64.659033	49.799116
-1.375000	-3.835761	-5.011433	94.526577	-0.007082	-0.268872	-0.005789	93.210495	-0.001923	-2.099612	28.380968	1.209654	-18.801526	-35.114604	18.402838	6.710465	34.172553	20.301319	8.528919	4.645903	36.384824	21.341107	-2.093889	-3.742428	53.140260	32.522177	-22.203149	-10.131796	64.719966	49.803293
-1.365000	-3.835761	-5.011433	94.526577	-0.007082	-0.268857	-0.005794	93.207258	-0.000052	-2.091052	28.367068	1.205320	-18.777424	-35.122824	18.383009	6.697631	34.202869	20.279363	8.510392	4.654175	36.420098	21.325091	-2.106525	-3.750635	53.155488	32.512953	-22.209809	-10.131512	64.739746	49.839160
-1.355000	-3.835761	-5.011433	94.526577	-0.007088	-0.268855	-0.005793	93.171666	-0.007922	-2.082657	28.322161	1.240526	-18.772391	-35.080879	18.388169	6.675222	34.206756	20.253934	8.507479	4.660462	36.426918	21.310783	-2.117817	-3.759679	53.149980	32.515858	-22.229553	-10.132359	64.709731	49.901132
-1.345000	-3.835761	-5.011433	94.526577	-0.007103	-0.268867	-0.005778	93.111190	-0.025472	-2.075520	28.263036	1.302991	-18.796151	-35.006357	18.415830	6.646490	34.180101	20.235477	8.523014	4.664085	36.395564	21.304991	-2.123105	-3.765200	53.117440	32.532391	-22.262302	-10.134849	64.632535	49.973322
-1.335000	-3.835761	-5.011433	94.526577	-0.007125	-0.268888	-0.005748	93.043973	-0.049058	-2.071207	28.211321	1.369370	-18.847325	-34.930253	18.455783	6.616396	34.133272	20.228311	8.553191	4.665695	36.333013	21.308414	-2.121504	-3.765063	53.065466	32.557396	-22.300529	-10.140540	64.522947	50.036285
-1.325000	-3.835761	-5.011433	94.526577	-0.007148	-0.268915	-0.005705	92.990497	-0.073137	-2.071467	28.184670	1.418563	-18.915126	-34.884064	18.495639	6.590541	34.086173	20.229929	8.589922	4.666574	36.259707	21.316574	-2.114744	-3.760006	53.011466	32.582025	-22.331198	-10.149973	64.403714	50.075612
-1.315000	-3.835761	-5.011433	94.526577	-0.007167	-0.268942	-0.005658	92.964595	-0.092718	-2.077292	28.191043	1.440979	-18.985463	-34.887851	18.526146	6.573478	34.058174	20.233787	8.624430	4.667625	36.199026	21.323148	-2.105007	-3.752368	52.972774	32.597994	-22.342069	-10.161362	64.297844	50.087315
-1.305000	-3.835761	-5.011433	94.526577	-0.007176	-0.268965	-0.005614	92.968094	-0.105242	-2.087855	28.227533	1.439730	-19.046945	-34.944262	18.543591	6.567014	34.059012	20.233630	8.649819	4.668673	36.166409	21.323748	-2.094162	-3.744190	52.958336	32.601055	-22.328971	-10.171081	64.221640	50.077067
-1.295000	-3.835761	-5.011433	94.526577	-0.007176	-0.268983	-0.005581	92.991400	-0.110965	-2.100166	28.282593	1.425242	-19.093296	-35.039170	18.548869	6.569381	34.085658	20.227044	8.661674	4.668480	36.164503	21.318368	-2.085005	-3.736222	52.967291	32.592348	-22.299325	-10.175598	64.181966	50.054477
-1.285000	-3.835761	-5.011433	94.526577	-0.007168	-0.268995	-0.005562	93.019346	-0.111903	-2.109965	28.339953	1.407847	-19.122130	-35.146763	18.544856	6.575925	34.125758	20.216462	8.657561	4.665420	36.185762	21.311381	-2.082672	-3.728329	52.993704	32.577220	-22.269070	-10.173456	64.177802	50.026621
-1.275000	-3.835761	-5.011433	94.526577	-0.007159	-0.269003	-0.005555	93.038962	-0.110285	-2.113612	28.383455	1.392708	-19.132823	-35.237264	18.534463	6.581204	34.164261	20.207227	8.636983	4.658411	36.218861	21.308996	-2.093703	-3.720573	53.032032	32.562091	-22.254305	-10.165814	64.203253	49.994844
-1.265000	-3.835761	-5.011433	94.526577	-0.007150	-0.269006	-0.005558	93.044917	-0.107624	-2.110014	28.402384	1.379341	-19.126063	-35.286337	18.520747	6.581568	34.188794	20.203937	8.602444	4.647623	36.253919	21.315522	-2.122094	-3.713814	53.078381	32.550990	-22.262467	-10.155215	64.249211	49.956356
-1.255000	-3.835761	-5.011433	94.526577	-0.007146	-0.269007	-0.005569	93.039887	-0.104829	-2.101405	28.395467	1.365245	-19.105194	-35.283750	18.508489	6.576824	34.191594	20.207396	8.560717	4.634593	36.284033	21.330682	-2.164644	-3.709314	53.127378	32.543883	-22.288337	-10.143633	64.303400	49.909132
-1.245000	-3.835761	-5.011433	94.526577	-0.007147	-0.269007	-0.005583	93.030487	-0.102768	-2.092427	28.370923	1.350760	-19.077198	-35.236963	18.505136	6.570034	34.169044	20.214041	8.522545	4.621641	36.304312	21.349620	-2.209308	-3.707708	53.169027	32.537930	-22.316973	-10.131450	64.350921	49.856749
-1.235000	-3.835761	-5.011433	94.526577	-0.007153	-0.269008	-0.005597	93.022225	-0.102398	-2.088035	28.341911	1.341279	-19.051387	-35.166861	18.519203	6.565611	34.121265	20.218012	8.499904	4.610878	36.311184	21.365391	-2.238802	-3.708255	53.190061	32.530774	-22.331410	-10.118291	64.377164	49.809884
-1.225000	-3.835761	-5.011433	94.526577	-0.007161	-0.269009	-0.005610	93.016926	-0.104239	-2.091402	28.319987	1.344653	-19.036075	-35.097682	18.556342	6.566915	34.052671	20.214287	8.501697	4.603374	36.303129	21.372116	-2.238282	-3.708977	53.180044	32.523394	-22.320694	-10.104965	64.372268	49.783219
-1.215000	-3.835761	-5.011433	94.526577	-0.007168	-0.269013	-0.005618	93.013479	-0.107890	-2.102783	28.310434	1.365470	-19.035386	-35.046901	18.615437	6.574689	33.972177	20.200864	8.530060	4.598924	36.281739	21.366987	-2.202982	-3.707611	53.137886	32.520227	-22.284456	-10.094644	64.334072	49.789326
-1.205000	-3.835761	-5.011433	94.526577	-0.007172	-0.269019	-0.005623	93.010174	-0.112261	-2.119646	28.311606	1.400730	-19.048139	-35.020234	18.687568	6.587003	33.891307	20.179075	8.579366	4.596434	36.251362	21.350583	-2.141046	-3.702767	53.073524	32.526314	-22.232210	-10.091917	64.267351	49.832738
-1.195000	-3.835761	-5.011433	94.526577	-0.007174	-0.269026	-0.005622	93.006439	-0.116421	-2.137842	28.317609	1.440498	-19.069191	-35.013063	18.759010	6.600412	33.820212	20.152620	8.638560	4.594571	36.217013	21.326141	-2.069540	-3.694595	53.002997	32.543560	-22.178084	-10.100134	64.180166	49.907164
-1.185000	-3.835761	-5.011433	94.526577	-0.007177	-0.269035	-0.005614	93.003017	-0.120293	-2.153182	28.322041	1.473043	-19.092093	-35.015812	18.816722	6.611466	33.763759	20.126332	8.695469	4.592302	36.182009	21.298590	-2.006076	-3.684618	52.940221	32.568859	-22.134051	-10.118946	64.080368	49.997126
-1.175000	-3.835761	-5.011433	94.526577	-0.007187	-0.269044	-0.005596	93.001077	-0.124549	-2.162727	28.320590	1.490493	-19.111468	-35.019384	18.853064	6.617681	33.720433	20.105121	8.740606	4.589176	36.147291	21.273556	-1.961491	-3.674869	52.891235	32.595250	-22.105461	-10.143888	63.974699	50.083203
-1.165000	-3.835761	-5.011433	94.526577	-0.007204	-0.269052	-0.005569	93.001302	-0.129836	-2.165319	28.311589	1.491221	-19.124029	-35.017982	18.867278	6.617733	33.685016	20.092812	8.768793	4.585386	36.112873	21.256041	-1.937718	-3.666844	52.854525	32.615006	-22.090832	-10.168345	63.870362	50.148596
-1.155000	-3.835761	-5.011433	94.526577	-0.007230	-0.269056	-0.005534	93.003546	-0.136010	-2.161475	28.295069	1.478343	-19.128246	-35.009081	18.863673	6.611267	33.653173	20.090695	8.778927	4.581682	36.079925	21.248652	-1.930821	-3.660937	52.826063	32.622582	-22.084927	-10.186549	63.776764	50.184366
-1.145000	-3.835761	-5.011433	94.526577	-0.007260	-0.269056	-0.005497	93.006985	-0.142030	-2.153005	28.271727	1.456607	-19.123559	-34.992303	18.848501	6.598848	33.624725	20.096338	8.773152	4.579131	36.051501	21.250069	-1.935805	-3.656716	52.804417	32.616058	-22.082679	-10.195844	63.705019	50.191311
